<?xml version="1.0" encoding="UTF-8" standalone="no"?>
<!-- Created with Inkscape (http://www.inkscape.org/) -->

<svg
   xmlns:dc="http://purl.org/dc/elements/1.1/"
   xmlns:cc="http://creativecommons.org/ns#"
   xmlns:rdf="http://www.w3.org/1999/02/22-rdf-syntax-ns#"
   xmlns:svg="http://www.w3.org/2000/svg"
   xmlns="http://www.w3.org/2000/svg"
   xmlns:sodipodi="http://sodipodi.sourceforge.net/DTD/sodipodi-0.dtd"
   xmlns:inkscape="http://www.inkscape.org/namespaces/inkscape"
   width="210mm"
   height="297mm"
   viewBox="0 0 744.09448819 1052.3622047"
   id="svg2"
   version="1.1"
   inkscape:version="0.91 r13725"
   sodipodi:docname="drawing.svg">
  <defs
     id="defs4" />
  <sodipodi:namedview
     id="base"
     pagecolor="#ffffff"
     bordercolor="#666666"
     borderopacity="1.0"
     inkscape:pageopacity="0.0"
     inkscape:pageshadow="2"
     inkscape:zoom="0.98994949"
     inkscape:cx="320.3615"
     inkscape:cy="620.18262"
     inkscape:document-units="px"
     inkscape:current-layer="layer1"
     showgrid="false"
     inkscape:window-width="1855"
     inkscape:window-height="1056"
     inkscape:window-x="65"
     inkscape:window-y="24"
     inkscape:window-maximized="1" />
  <metadata
     id="metadata7">
    <rdf:RDF>
      <cc:Work
         rdf:about="">
        <dc:format>image/svg+xml</dc:format>
        <dc:type
           rdf:resource="http://purl.org/dc/dcmitype/StillImage" />
        <dc:title></dc:title>
      </cc:Work>
    </rdf:RDF>
  </metadata>
  <g
     inkscape:label="Layer 1"
     inkscape:groupmode="layer"
     id="layer1">
    <path
       style="fill:#000000;fill-rule:evenodd;stroke:none;stroke-width:1px;stroke-linecap:butt;stroke-linejoin:miter;stroke-opacity:1"
       d="m 506.86801,638.21392 80.05077,-33.57144 20.58557,61.20449 20.41842,-5.55584 -19.53952,-91.6947 -83.97499,28.29659 -20.83683,-73.81653 53.57143,28.57143 36.42857,-49.28572 -21.42857,-16.42857 -25.71429,35.71429 -45,-20 -20.25997,4.49492 c 0,0 14.82669,-10.12255 7.68383,-30.12255 -7.14286,-20 -19.61748,-23.27556 -36.04605,-19.70413 -16.42857,3.57142 -21.17333,22.79837 -16.25525,34.58158 7.89862,18.92428 26.18347,20.2451 26.18347,20.2451 l -20.59174,6.93365 -61.42858,-1.42858 -7.14286,60.71429 25.00001,0.71429 2.14286,-35 47.14285,-2.85714 29.04061,65.90863 L 456.81109,673.5667 395,644.50506 l -10.71429,20 L 465,710.21935 Z"
       id="path3344"
       inkscape:connector-curvature="0"
       sodipodi:nodetypes="cccccccccccccsssccccccccccccc" />
    <path
       style="fill:#000000;fill-rule:evenodd;stroke:none;stroke-width:1px;stroke-linecap:butt;stroke-linejoin:miter;stroke-opacity:1"
       d="m 342.44171,522.5372 -204.55589,11.11167 204.05081,5.55584 z"
       id="path3346"
       inkscape:connector-curvature="0" />
    <path
       style="fill:#000000;fill-rule:evenodd;stroke:none;stroke-width:1px;stroke-linecap:butt;stroke-linejoin:miter;stroke-opacity:1"
       d="m 340.92648,617.49154 1.51523,19.19289 -216.17264,-18.18274 z"
       id="path3350"
       inkscape:connector-curvature="0" />
    <path
       style="fill:#000000;fill-rule:evenodd;stroke:none;stroke-width:1px;stroke-linecap:butt;stroke-linejoin:miter;stroke-opacity:1"
       d="M 339.41126,561.93315 338.90618,593.24787 11.111678,576.58036 Z"
       id="path3352"
       inkscape:connector-curvature="0" />
    <path
       style="fill:#000000;fill-rule:evenodd;stroke:none;stroke-width:1px;stroke-linecap:butt;stroke-linejoin:miter;stroke-opacity:1"
       d="m 591.42857,635.57649 9.28572,31.07143 L 595,668.07649 Z"
       id="path3354"
       inkscape:connector-curvature="0" />
    <path
       style="fill:#000000;fill-rule:evenodd;stroke:none;stroke-width:1px;stroke-linecap:butt;stroke-linejoin:miter;stroke-opacity:1"
       d="m 623.92857,617.00506 7.5,40.35714 c 0,0 4.64286,1.07143 4.64286,-0.71428 0,-1.78572 -12.14286,-39.64286 -12.14286,-39.64286 z"
       id="path3356"
       inkscape:connector-curvature="0" />
    <path
       style="fill:#000000;fill-rule:evenodd;stroke:none;stroke-width:1px;stroke-linecap:butt;stroke-linejoin:miter;stroke-opacity:1"
       d="M 385.35714,670.21935 425,691.64792 383.92857,673.07649 Z"
       id="path3358"
       inkscape:connector-curvature="0" />
    <path
       style="fill:#000000;fill-rule:evenodd;stroke:none;stroke-width:1px;stroke-linecap:butt;stroke-linejoin:miter;stroke-opacity:1"
       d="m 400,640.57649 33.92857,17.85714 -32.85714,-21.42857 z"
       id="path3360"
       inkscape:connector-curvature="0" />
    <path
       style="fill:#000000;fill-rule:evenodd;stroke:none;stroke-width:1px;stroke-linecap:butt;stroke-linejoin:miter;stroke-opacity:1"
       d="m 372.5,540.93363 -6.42857,32.5 3.21428,-0.35714 z"
       id="path3362"
       inkscape:connector-curvature="0" />
    <path
       style="fill:#000000;fill-rule:evenodd;stroke:none;stroke-width:1px;stroke-linecap:butt;stroke-linejoin:miter;stroke-opacity:1"
       d="m 403.57143,553.79078 -2.5,23.21428 2.5,-0.35714 z"
       id="path3364"
       inkscape:connector-curvature="0" />
    <path
       style="fill:#000000;fill-rule:evenodd;stroke:none;stroke-width:1px;stroke-linecap:butt;stroke-linejoin:miter;stroke-opacity:1"
       d="m 574.28572,538.43363 19.28571,-31.42857 2.85714,3.21429 z"
       id="path3368"
       inkscape:connector-curvature="0" />
    <path
       style="fill:#000000;fill-rule:evenodd;stroke:none;stroke-width:1px;stroke-linecap:butt;stroke-linejoin:miter;stroke-opacity:1"
       d="m 564.28572,482.71935 3.21428,2.85714 -16.07143,18.92857 z"
       id="path3370"
       inkscape:connector-curvature="0" />
    <path
       style="fill:#000000;fill-rule:evenodd;stroke:none;stroke-width:1px;stroke-linecap:butt;stroke-linejoin:miter;stroke-opacity:1"
       d="m 588.21429,664.14792 -0.71429,-12.5 -3.92857,1.07143 z"
       id="path3372"
       inkscape:connector-curvature="0" />
    <path
       style="fill:#000000;fill-rule:evenodd;stroke:none;stroke-width:1px;stroke-linecap:butt;stroke-linejoin:miter;stroke-opacity:1"
       d="m 633.21429,630.21935 2.14285,-1.42857 1.42858,16.42857 z"
       id="path3374"
       inkscape:connector-curvature="0" />
    <path
       style="fill:#000000;fill-rule:evenodd;stroke:none;stroke-width:1px;stroke-linecap:butt;stroke-linejoin:miter;stroke-opacity:1"
       d="m 414.64286,639.14792 11.07143,8.57143 1.07142,-2.85714 z"
       id="path3376"
       inkscape:connector-curvature="0"
       sodipodi:nodetypes="cccc" />
    <path
       style="fill:#000000;fill-rule:evenodd;stroke:none;stroke-width:1px;stroke-linecap:butt;stroke-linejoin:miter;stroke-opacity:1"
       d="m 395.71429,681.29078 15,7.85714 -1.78572,2.14286 z"
       id="path3378"
       inkscape:connector-curvature="0" />
  </g>
</svg>
